<svg xmlns="http://www.w3.org/2000/svg" viewBox="0 0 36.86 36.86"><defs><style>.cls-1{fill:#eeeded;}.cls-2{fill:#2a638c;}.cls-3{fill:#a0c9ea;stroke:#2a638c;stroke-miterlimit:10;stroke-width:0.75px;}</style></defs><g id="Réteg_2" data-name="Réteg 2"><g id="Réteg_1" data-name="Réteg 1"><path class="cls-1" d="M18.43,35.36A16.93,16.93,0,1,1,35.36,18.43,16.94,16.94,0,0,1,18.43,35.36Z"/><path class="cls-2" d="M18.43,3A15.43,15.43,0,1,1,3,18.43,15.45,15.45,0,0,1,18.43,3m0-3A18.43,18.43,0,1,0,36.86,18.43,18.43,18.43,0,0,0,18.43,0Z"/><polygon class="cls-3" points="6.67 18.73 18.57 7.47 30.19 18.42 27.14 18.42 27.14 29.39 21.03 29.39 21.03 23.21 15.74 23.21 15.74 29.39 9.68 29.39 9.68 18.7 6.67 18.73"/></g></g></svg>