<svg xmlns="http://www.w3.org/2000/svg" viewBox="0 0 27.2 54.99"><defs><style>.cls-1{fill:#919191;}.cls-2{fill:#2a638c;}</style></defs><g id="Réteg_2" data-name="Réteg 2"><g id="Réteg_1" data-name="Réteg 1"><path class="cls-1" d="M10.11,52.75a41.49,41.49,0,0,1,.08-50.52L25.25,17.31a19.94,19.94,0,0,0,0,20.26Z"/><path class="cls-2" d="M10.35,4.52,23.4,17.57a21.42,21.42,0,0,0,0,19.74L10.27,50.47a39.76,39.76,0,0,1,.08-45.95M10.07,0a42.71,42.71,0,0,0-.19,54.87L10,55,27.2,37.78a18.42,18.42,0,0,1,0-20.69L10.07,0Z"/></g></g></svg>