<svg xmlns="http://www.w3.org/2000/svg" viewBox="0 0 46.74 135.28"><defs><style>.cls-1{fill:#eeeded;}.cls-2{fill:#2a638c;}.cls-3{font-size:12px;fill:#6f6f6e;font-family:Consolas-Bold, Consolas;font-weight:700;}</style></defs><g id="Réteg_2" data-name="Réteg 2"><g id="Réteg_1" data-name="Réteg 1"><path class="cls-1" d="M26.65,133.11A97.67,97.67,0,0,1,26.73,2.17l18,18a72.63,72.63,0,0,0-.9,94.08l.82,1Z"/><path class="cls-2" d="M26.79,4.35,42.63,20.2a74.17,74.17,0,0,0-.07,94.88L26.72,130.93A96.19,96.19,0,0,1,26.79,4.35M26.68,0a99.19,99.19,0,0,0-.08,135.28l20.07-20.06c-.59-.65-1.18-1.31-1.74-2a71.15,71.15,0,0,1,1.81-93.17L26.68,0Z"/><text class="cls-3" transform="translate(5.95 70.78)">-X</text></g></g></svg>