<svg xmlns="http://www.w3.org/2000/svg" viewBox="0 0 38.38 95.16"><defs><style>.cls-1{fill:#cdcdcc;}.cls-2{fill:#2a638c;}</style></defs><g id="Réteg_2" data-name="Réteg 2"><g id="Réteg_1" data-name="Réteg 1"><path class="cls-1" d="M18.28,93l-.65-.77a69.63,69.63,0,0,1,.73-90l18,18A44.52,44.52,0,0,0,36.28,75Z"/><path class="cls-2" d="M18.45,4.4,34.37,20.32a46.08,46.08,0,0,0-.08,54.53L18.38,90.76A68.14,68.14,0,0,1,18.45,4.4M18.29,0a71.17,71.17,0,0,0-1.81,93.18q.86,1,1.74,2L38.3,75.08,38.2,75a42.7,42.7,0,0,1,.18-54.87L18.29,0Z"/></g></g></svg>