<svg xmlns="http://www.w3.org/2000/svg" viewBox="0 0 27.21 54.99"><defs><style>.cls-1{fill:#919191;}.cls-2{fill:#6f6f6e;}</style></defs><g id="Réteg_2" data-name="Réteg 2"><g id="Réteg_1" data-name="Réteg 1"><path class="cls-1" d="M17.33.12,17.22,0,0,17.22A18.36,18.36,0,0,1,3.21,27.61,18.3,18.3,0,0,1,.06,37.91L17.14,55A42.71,42.71,0,0,0,17.33.12Z"/><path class="cls-2" d="M9.69,21.66l-.7.7-2.8-2.8.7-.71ZM9,18.87l.67.67-2.81,2.8-.67-.67Z"/><path class="cls-2" d="M12.66,19.86a2,2,0,0,1-1.41-.68L9,16.9a2,2,0,0,1-.68-1.42A2,2,0,0,1,9,14a2,2,0,0,1,1.44-.7,2.08,2.08,0,0,1,1.42.69l2.28,2.28a2.06,2.06,0,0,1,.69,1.42,2.07,2.07,0,0,1-.69,1.44A2,2,0,0,1,12.66,19.86Zm1.13-2.11a1.14,1.14,0,0,0-.38-.73l-2.28-2.29a1.16,1.16,0,0,0-.74-.38,1,1,0,0,0-.75.36,1,1,0,0,0-.36.74,1.2,1.2,0,0,0,.39.74L12,18.47a1.17,1.17,0,0,0,.74.39,1,1,0,0,0,.75-.36A1,1,0,0,0,13.79,17.75Z"/><path class="cls-2" d="M15.49,16.2l.74-.73.74.73-.74.74Z"/><path class="cls-2" d="M19.13,14l-.7.71-4.26-4.26-.28,1.16-.72-.73.24-1.19.7-.71Z"/></g></g></svg>