<svg xmlns="http://www.w3.org/2000/svg" viewBox="0 0 27.21 54.99"><defs><style>.cls-1{fill:#919191;}.cls-2{fill:#2a638c;}.cls-3{fill:#6f6f6e;}</style></defs><g id="Réteg_2" data-name="Réteg 2"><g id="Réteg_1" data-name="Réteg 1"><path class="cls-1" d="M2,37.7A19.78,19.78,0,0,0,4.71,27.61a19.77,19.77,0,0,0-2.8-10.18L17.11,2.24A41.5,41.5,0,0,1,17,52.75Z"/><path class="cls-2" d="M16.94,4.52a39.55,39.55,0,0,1,7.27,23.14,39.71,39.71,0,0,1-7.35,22.81l-13-13a21.42,21.42,0,0,0,2.38-9.83,21.39,21.39,0,0,0-2.43-9.92L16.94,4.52M17.22,0,0,17.22A18.36,18.36,0,0,1,3.21,27.61,18.3,18.3,0,0,1,.06,37.91L17.14,55A42.71,42.71,0,0,0,17.33.12L17.22,0Z"/><path class="cls-3" d="M9.69,21.66l-.7.7-2.8-2.8.7-.71ZM9,18.87l.67.67-2.81,2.8-.67-.67Z"/><path class="cls-3" d="M12.66,19.86a2,2,0,0,1-1.41-.68L9,16.9a2.05,2.05,0,0,1-.69-1.42A2,2,0,0,1,9,14a2,2,0,0,1,1.44-.7,2.08,2.08,0,0,1,1.42.69l2.28,2.28a2.06,2.06,0,0,1,.69,1.42,2.07,2.07,0,0,1-.69,1.44A2,2,0,0,1,12.66,19.86Zm1.13-2.11a1.14,1.14,0,0,0-.38-.73l-2.28-2.29a1.16,1.16,0,0,0-.74-.38,1,1,0,0,0-.75.36,1,1,0,0,0-.35.74,1.13,1.13,0,0,0,.38.74L12,18.47a1.17,1.17,0,0,0,.74.39,1,1,0,0,0,.75-.36A1,1,0,0,0,13.79,17.75Z"/><path class="cls-3" d="M15.49,16.2l.74-.73.74.73-.74.74Z"/><path class="cls-3" d="M19.13,14l-.7.71-4.26-4.26-.28,1.16-.72-.73.24-1.19.7-.71Z"/></g></g></svg>