<svg xmlns="http://www.w3.org/2000/svg" viewBox="0 0 46.74 135.28"><defs><style>.cls-1{fill:#eeeded;}.cls-2{font-size:12px;font-family:Consolas-Bold, Consolas;font-weight:700;}.cls-2,.cls-3{fill:#6f6f6e;}</style></defs><g id="Réteg_2" data-name="Réteg 2"><g id="Réteg_1" data-name="Réteg 1"><path class="cls-1" d="M1.81,22.05A71.15,71.15,0,0,1,0,115.22l20.06,20.06A99.26,99.26,0,0,0,46.74,67.6,99.24,99.24,0,0,0,20.13,0L.07,20.06C.66,20.71,1.25,21.37,1.81,22.05Z"/><text class="cls-2" transform="translate(24.5 70.97)">+X</text><path class="cls-3" d="M13.94,19.89l-.7.71-2.8-2.81.7-.7Zm-.68-2.79.67.67-2.81,2.81-.67-.67Z"/><path class="cls-3" d="M18.08,17.57l-.7.71L13.12,14l-.27,1.15-.73-.73.24-1.19.7-.71Z"/><path class="cls-3" d="M19.26,15.75a2.06,2.06,0,0,1-1.41-.69l-2.28-2.28a2,2,0,0,1-.69-1.42,2,2,0,0,1,.69-1.44A2,2,0,0,1,17,9.22a2.06,2.06,0,0,1,1.42.69l2.28,2.29a2,2,0,0,1,.69,1.41,2,2,0,0,1-.69,1.44A2.05,2.05,0,0,1,19.26,15.75Zm1.13-2.11A1.13,1.13,0,0,0,20,12.9l-2.28-2.28a1.17,1.17,0,0,0-.74-.39,1,1,0,0,0-.75.36,1,1,0,0,0-.35.75,1.14,1.14,0,0,0,.38.73l2.28,2.29a1.16,1.16,0,0,0,.74.38,1,1,0,0,0,.75-.36A1,1,0,0,0,20.39,13.64Z"/></g></g></svg>