<svg xmlns="http://www.w3.org/2000/svg" viewBox="0 0 46.74 135.28"><defs><style>.cls-1{fill:#eeeded;}.cls-2{fill:#2a638c;}.cls-3{font-size:12px;font-family:Consolas-Bold, Consolas;font-weight:700;}.cls-3,.cls-4{fill:#6f6f6e;}</style></defs><g id="Réteg_2" data-name="Réteg 2"><g id="Réteg_1" data-name="Réteg 1"><path class="cls-1" d="M2.06,115.16A72.66,72.66,0,0,0,3,21.08l-.83-1,18-18A97.38,97.38,0,0,1,45.24,67.6,97.38,97.38,0,0,1,20,133.11Z"/><path class="cls-2" d="M20,4.35A95.89,95.89,0,0,1,43.74,67.6,95.9,95.9,0,0,1,20,130.93L4.1,115.08A74.17,74.17,0,0,0,4.18,20.2L20,4.35M20.13,0,.07,20.06c.59.65,1.18,1.31,1.74,2A71.15,71.15,0,0,1,0,115.22l20.06,20.06A99.26,99.26,0,0,0,46.74,67.6,99.24,99.24,0,0,0,20.13,0Z"/><text class="cls-3" transform="translate(24.5 70.97)">+X</text><path class="cls-4" d="M13.94,19.89l-.7.71-2.81-2.81.71-.7Zm-.68-2.78.67.66-2.81,2.81-.67-.67Z"/><path class="cls-4" d="M18.08,17.57l-.7.71L13.12,14l-.27,1.15-.73-.73.24-1.19.7-.71Z"/><path class="cls-4" d="M19.26,15.75a2.06,2.06,0,0,1-1.41-.69l-2.28-2.28a2,2,0,0,1-.69-1.42,2,2,0,0,1,.69-1.44A2,2,0,0,1,17,9.22a2.06,2.06,0,0,1,1.42.69l2.28,2.29a2,2,0,0,1,.69,1.41,2,2,0,0,1-.69,1.44A2.05,2.05,0,0,1,19.26,15.75Zm1.13-2.11A1.13,1.13,0,0,0,20,12.9l-2.28-2.28a1.17,1.17,0,0,0-.74-.39,1,1,0,0,0-.75.36,1,1,0,0,0-.35.75,1.11,1.11,0,0,0,.38.73l2.28,2.29a1.16,1.16,0,0,0,.74.38,1,1,0,0,0,.75-.36A1,1,0,0,0,20.39,13.64Z"/></g></g></svg>