<svg xmlns="http://www.w3.org/2000/svg" viewBox="0 0 38.38 95.16"><defs><style>.cls-1{fill:#cdcdcc;}.cls-2{fill:#2a638c;}.cls-3{fill:#6f6f6e;}</style></defs><g id="Réteg_2" data-name="Réteg 2"><g id="Réteg_1" data-name="Réteg 1"><path class="cls-1" d="M2,75A44.5,44.5,0,0,0,2.1,20.18l18-18c.22.26.44.51.65.77A69.62,69.62,0,0,1,20,93Z"/><path class="cls-2" d="M20,4.4a68.14,68.14,0,0,1-.08,86.36L4,74.84a46.08,46.08,0,0,0,.07-54.53L20,4.4M20.16,0,.08,20.08l.11.12A42.71,42.71,0,0,1,0,75.07L20.09,95.16A71.16,71.16,0,0,0,21.9,2c-.56-.67-1.15-1.33-1.74-2Z"/><path class="cls-3" d="M15.66,18.19l-.7.71-2.8-2.81.7-.7ZM15,15.41l.67.67-2.81,2.8-.67-.67Z"/><path class="cls-3" d="M19.8,15.88l-.7.7-4.25-4.25-.28,1.15-.73-.73.24-1.19.7-.7Z"/></g></g></svg>