<svg xmlns="http://www.w3.org/2000/svg" viewBox="0 0 95.16 38.38"><defs><style>.cls-1{fill:#cdcdcc;}.cls-2{fill:#2a638c;}</style></defs><g id="Réteg_2" data-name="Réteg 2"><g id="Réteg_1" data-name="Réteg 1"><path class="cls-1" d="M74.93,35.69a44.73,44.73,0,0,0-54.71-.08L2.92,18.31,3.27,18a69.16,69.16,0,0,1,89,.37Z"/><path class="cls-2" d="M47.49,4A66.84,66.84,0,0,1,89.27,18.53L74.74,33.05A46.74,46.74,0,0,0,20.41,33L5.89,18.46A66.88,66.88,0,0,1,47.49,4m0-4A70.65,70.65,0,0,0,2,16.48q-1,.86-2,1.74L20.08,38.3l.12-.1a42.7,42.7,0,0,1,54.87.18L95.16,18.29A70.86,70.86,0,0,0,47.49,0Z"/></g></g></svg>