<svg xmlns="http://www.w3.org/2000/svg" viewBox="0 0 54.99 27.3"><defs><style>.cls-1{fill:#919191;}.cls-2{fill:#2a638c;}.cls-3{fill:#6f6f6e;}</style></defs><g id="Réteg_2" data-name="Réteg 2"><g id="Réteg_1" data-name="Réteg 1"><path class="cls-1" d="M27.58,25.8A41.2,41.2,0,0,1,2.23,17.12L17.41,1.94a19.85,19.85,0,0,0,10,2.69A19.87,19.87,0,0,0,37.46,1.91L52.75,17.19A41,41,0,0,1,27.58,25.8Z"/><path class="cls-2" d="M37.2,3.76,50.46,17A39.54,39.54,0,0,1,27.58,24.3,39.67,39.67,0,0,1,4.52,17L17.68,3.8A21.33,21.33,0,0,0,27.4,6.13a21.28,21.28,0,0,0,9.8-2.37M37.68,0A18.32,18.32,0,0,1,27.4,3.13,18.32,18.32,0,0,1,17.19,0L0,17.23A42.58,42.58,0,0,0,27.58,27.3a42.4,42.4,0,0,0,27.29-9.88l.12-.11L37.68,0Z"/><path class="cls-3" d="M12.27,16.35l.67.67-2.32,2.32L10,18.67Z"/><path class="cls-3" d="M15.48,16.76a2.06,2.06,0,0,1-1.41-.69l-2.29-2.28a2,2,0,0,1-.68-1.42,2,2,0,0,1,.69-1.44,2,2,0,0,1,1.44-.7,2.08,2.08,0,0,1,1.42.69l2.28,2.29a2.06,2.06,0,0,1,.69,1.41,2,2,0,0,1-.69,1.44A2.09,2.09,0,0,1,15.48,16.76Zm1.13-2.11a1.13,1.13,0,0,0-.38-.74l-2.29-2.28a1.11,1.11,0,0,0-.73-.39,1.25,1.25,0,0,0-1.11,1.11,1.11,1.11,0,0,0,.39.73l2.28,2.29a1.16,1.16,0,0,0,.74.38,1,1,0,0,0,.75-.36A1,1,0,0,0,16.61,14.65Z"/><path class="cls-3" d="M18.31,13.1l.74-.74.74.74-.74.74Z"/><path class="cls-3" d="M22,10.94l-.71.7L17,7.39l-.28,1.15L16,7.81l.23-1.19.71-.7Z"/></g></g></svg>