<svg xmlns="http://www.w3.org/2000/svg" viewBox="0 0 54.99 27.3"><defs><style>.cls-1{fill:#919191;}.cls-2{fill:#6f6f6e;}</style></defs><g id="Réteg_2" data-name="Réteg 2"><g id="Réteg_1" data-name="Réteg 1"><path class="cls-1" d="M37.68,0A18.32,18.32,0,0,1,27.4,3.13,18.32,18.32,0,0,1,17.19,0L0,17.23a42.71,42.71,0,0,0,54.87.19l.12-.11Z"/><path class="cls-2" d="M12.27,16.35l.67.67-2.32,2.32L10,18.67Z"/><path class="cls-2" d="M15.48,16.76a2.06,2.06,0,0,1-1.41-.69l-2.29-2.28a2,2,0,0,1-.68-1.42,2,2,0,0,1,.69-1.44,2,2,0,0,1,1.44-.7,2.08,2.08,0,0,1,1.42.69l2.28,2.29a2.06,2.06,0,0,1,.69,1.41,2,2,0,0,1-.7,1.44A2,2,0,0,1,15.48,16.76Zm1.13-2.11a1.13,1.13,0,0,0-.38-.74L14,11.63a1.15,1.15,0,0,0-.74-.39,1.25,1.25,0,0,0-1.11,1.11,1.15,1.15,0,0,0,.39.73l2.28,2.29a1.13,1.13,0,0,0,.74.38,1.26,1.26,0,0,0,1.1-1.1Z"/><path class="cls-2" d="M18.31,13.1l.74-.74.74.74-.74.74Z"/><path class="cls-2" d="M22,10.94l-.71.7L17,7.39l-.28,1.15L16,7.81l.23-1.19.71-.7Z"/></g></g></svg>