<svg xmlns="http://www.w3.org/2000/svg" viewBox="0 0 135.28 46.74"><defs><style>.cls-1{fill:#eeeded;}.cls-2{fill:#2a638c;}.cls-3{font-size:12px;font-family:Consolas-Bold, Consolas;font-weight:700;}.cls-3,.cls-4{fill:#6f6f6e;}</style></defs><g id="Réteg_2" data-name="Réteg 2"><g id="Réteg_1" data-name="Réteg 1"><path class="cls-1" d="M67.68,45.24A97.38,97.38,0,0,1,2.17,20l18-18A72.25,72.25,0,0,0,67.73,19.79,72.35,72.35,0,0,0,114.2,3l1-.83,18,18A97.38,97.38,0,0,1,67.68,45.24Z"/><path class="cls-2" d="M20.2,4.1A73.77,73.77,0,0,0,67.73,21.29,73.84,73.84,0,0,0,115.08,4.18L130.93,20A95.89,95.89,0,0,1,67.68,43.74,95.92,95.92,0,0,1,4.35,20L20.2,4.1M20.06,0,0,20.06A99.28,99.28,0,0,0,67.68,46.74a99.24,99.24,0,0,0,67.6-26.61L115.22.07c-.65.59-1.31,1.18-2,1.74a70.6,70.6,0,0,1-45.5,16.48A70.84,70.84,0,0,1,20.06,0Z"/><text class="cls-3" transform="translate(61.05 35.91)">-Y</text><path class="cls-4" d="M12.84,18.17l.67.67-2.32,2.32-.67-.67Z"/><path class="cls-4" d="M17.12,18.16l-.7.7-4.25-4.25-.28,1.15L11.16,15l.24-1.2.7-.7Z"/><path class="cls-4" d="M18.3,16.33a2,2,0,0,1-1.41-.68l-2.28-2.29A2.06,2.06,0,0,1,13.92,12a2,2,0,0,1,.69-1.44,2,2,0,0,1,1.45-.7,2.06,2.06,0,0,1,1.41.69l2.29,2.28a2,2,0,0,1,.68,1.42,2.07,2.07,0,0,1-.69,1.44A2,2,0,0,1,18.3,16.33Zm1.13-2.11a1.14,1.14,0,0,0-.38-.73L16.77,11.2a1.16,1.16,0,0,0-.74-.38,1,1,0,0,0-.75.36,1,1,0,0,0-.35.74,1.13,1.13,0,0,0,.38.74l2.28,2.28a1.17,1.17,0,0,0,.74.39,1,1,0,0,0,.75-.36A1,1,0,0,0,19.43,14.22Z"/></g></g></svg>