<svg xmlns="http://www.w3.org/2000/svg" viewBox="0 0 135.28 46.74"><defs><style>.cls-1{fill:#eeeded;}.cls-2{font-size:12px;font-family:Consolas-Bold, Consolas;font-weight:700;}.cls-2,.cls-3{fill:#6f6f6e;}</style></defs><g id="Réteg_2" data-name="Réteg 2"><g id="Réteg_1" data-name="Réteg 1"><path class="cls-1" d="M113.23,1.81A71.15,71.15,0,0,1,20.06,0L0,20.06A99.28,99.28,0,0,0,67.68,46.74a99.24,99.24,0,0,0,67.6-26.61L115.22.07C114.57.66,113.91,1.25,113.23,1.81Z"/><text class="cls-2" transform="translate(61.05 35.91)">-Y</text><path class="cls-3" d="M12.85,18.17l.67.67-2.33,2.32-.67-.67Z"/><path class="cls-3" d="M17.12,18.16l-.7.7-4.26-4.25-.27,1.15L11.16,15l.24-1.2.7-.7Z"/><path class="cls-3" d="M18.3,16.33a2,2,0,0,1-1.41-.68l-2.28-2.29A2,2,0,0,1,13.92,12a2,2,0,0,1,.69-1.44,2,2,0,0,1,1.45-.7,2,2,0,0,1,1.41.69l2.28,2.28a2,2,0,0,1,.69,1.42,2.07,2.07,0,0,1-.69,1.44A2,2,0,0,1,18.3,16.33Zm1.13-2.11a1.14,1.14,0,0,0-.38-.73L16.77,11.2a1.16,1.16,0,0,0-.74-.38,1,1,0,0,0-.75.36,1,1,0,0,0-.35.74,1.13,1.13,0,0,0,.38.74l2.28,2.28a1.17,1.17,0,0,0,.74.39,1,1,0,0,0,.75-.36A1,1,0,0,0,19.43,14.22Z"/></g></g></svg>