<svg xmlns="http://www.w3.org/2000/svg" viewBox="0 0 95.16 38.38"><defs><style>.cls-1{fill:#cdcdcc;}.cls-2{fill:#2a638c;}.cls-3{fill:#6f6f6e;}</style></defs><g id="Réteg_2" data-name="Réteg 2"><g id="Réteg_1" data-name="Réteg 1"><path class="cls-1" d="M47.67,36.88A69.29,69.29,0,0,1,2.19,20l18-18a44.13,44.13,0,0,0,27.48,9.55A44,44,0,0,0,75,2.1l18,18-.77.65A69.35,69.35,0,0,1,47.67,36.88Z"/><path class="cls-2" d="M20.32,4a45.71,45.71,0,0,0,27.35,9.05,45.54,45.54,0,0,0,27.18-9L90.76,20A67.86,67.86,0,0,1,47.68,35.38,67.82,67.82,0,0,1,4.4,19.93L20.32,4m-.23-4L0,20.09A70.86,70.86,0,0,0,47.68,38.38,70.64,70.64,0,0,0,93.18,21.9c.67-.56,1.33-1.15,2-1.74L75.08.08,75,.19a42.4,42.4,0,0,1-27.29,9.88A42.53,42.53,0,0,1,20.09,0Z"/><path class="cls-3" d="M15.54,15.5l.67.67-2.32,2.32-.67-.67Z"/><path class="cls-3" d="M19.82,15.49l-.7.71-4.26-4.26-.27,1.16-.73-.73.24-1.19.7-.71Z"/></g></g></svg>