<svg xmlns="http://www.w3.org/2000/svg" viewBox="0 0 38.38 95.16"><defs><style>.cls-1{fill:#cdcdcc;}.cls-2{fill:#2a638c;}</style></defs><g id="Réteg_2" data-name="Réteg 2"><g id="Réteg_1" data-name="Réteg 1"><path class="cls-1" d="M18,91.89a69.13,69.13,0,0,1,.37-89l17.3,17.31a45,45,0,0,0-.08,54.71l-17.3,17.3C18.21,92.13,18.11,92,18,91.89Z"/><path class="cls-2" d="M18.53,5.89,33.06,20.42A47.13,47.13,0,0,0,33,74.75L18.45,89.27a67.16,67.16,0,0,1,.08-83.38M18.29,0a71.17,71.17,0,0,0-1.81,93.18q.86,1,1.74,2L38.3,75.08,38.2,75a42.7,42.7,0,0,1,.18-54.87L18.29,0Z"/></g></g></svg>