<svg xmlns="http://www.w3.org/2000/svg" viewBox="0 0 54.99 27.32"><defs><style>.cls-1{fill:#919191;}.cls-2{fill:#2a638c;}</style></defs><g id="Réteg_2" data-name="Réteg 2"><g id="Réteg_1" data-name="Réteg 1"><path class="cls-1" d="M2.24,10.11a41.19,41.19,0,0,1,50.51.08L37.59,25.34a19.93,19.93,0,0,0-20.05.07Z"/><path class="cls-2" d="M27.41,3a39.71,39.71,0,0,1,23.06,7.35L37.33,23.49a21.46,21.46,0,0,0-19.53.06L4.52,10.27A39.57,39.57,0,0,1,27.41,3m0-3A42.4,42.4,0,0,0,.12,9.88L0,10,17.32,27.32a18.41,18.41,0,0,1,20.49-.07L55,10.07A42.58,42.58,0,0,0,27.41,0Z"/></g></g></svg>