<svg xmlns="http://www.w3.org/2000/svg" viewBox="0 0 135.28 46.74"><defs><style>.cls-1{fill:#eeeded;}.cls-2{fill:#2a638c;}.cls-3{font-size:12px;fill:#6f6f6e;font-family:Consolas-Bold, Consolas;font-weight:700;}</style></defs><g id="Réteg_2" data-name="Réteg 2"><g id="Réteg_1" data-name="Réteg 1"><path class="cls-1" d="M115.16,44.68a72.65,72.65,0,0,0-94.08-.9l-1,.82-18-18a97.67,97.67,0,0,1,130.94.08Z"/><path class="cls-2" d="M67.6,3a95.9,95.9,0,0,1,63.33,23.79L115.08,42.63a74.17,74.17,0,0,0-94.88-.07L4.35,26.72A95.89,95.89,0,0,1,67.6,3m0-3A99.28,99.28,0,0,0,0,26.6L20.06,46.67c.65-.59,1.31-1.18,2-1.74a71.13,71.13,0,0,1,93.17,1.81l20.06-20.06A99.21,99.21,0,0,0,67.6,0Z"/><text class="cls-3" transform="translate(60.82 17.89)">+Y</text></g></g></svg>