<svg xmlns="http://www.w3.org/2000/svg" viewBox="0 0 95.16 38.38"><defs><style>.cls-1{fill:#cdcdcc;}.cls-2{fill:#2a638c;}</style></defs><g id="Réteg_2" data-name="Réteg 2"><g id="Réteg_1" data-name="Réteg 1"><path class="cls-1" d="M75,36.36a44.21,44.21,0,0,0-54.79-.08l-18-18L3,17.63a69.67,69.67,0,0,1,90,.73Z"/><path class="cls-2" d="M47.49,3A67.85,67.85,0,0,1,90.76,18.45L74.84,34.37a45.72,45.72,0,0,0-54.53-.08L4.4,18.38A67.88,67.88,0,0,1,47.49,3m0-3A70.65,70.65,0,0,0,2,16.48q-1,.86-2,1.74L20.08,38.3l.12-.1a42.7,42.7,0,0,1,54.87.18L95.16,18.29A70.86,70.86,0,0,0,47.49,0Z"/></g></g></svg>