<svg xmlns="http://www.w3.org/2000/svg" viewBox="0 0 36.77 36.77"><defs><style>.cls-1{fill:#cececd;}.cls-2{fill:#efeeee;}.cls-2,.cls-3{stroke:#100605;stroke-miterlimit:10;stroke-width:1.2px;}.cls-3{fill:none;}.cls-4{fill:#1d1d1b;}</style></defs><g id="Réteg_2" data-name="Réteg 2"><g id="Réteg_1" data-name="Réteg 1"><rect class="cls-1" width="36.77" height="36.77" rx="3.76"/><path class="cls-2" d="M13.36,12.43H4.88"/><line class="cls-2" x1="9.12" y1="14.5" x2="9.12" y2="23.42"/><polyline class="cls-3" points="11.88 20.94 9.12 23.69 6.36 20.94"/><path class="cls-4" d="M27.62,23.21V14.9l-.16.11a5,5,0,0,1-.57.34l-.67.32a7.13,7.13,0,0,1-.7.23l-.17,0V14.52l.1,0a8,8,0,0,0,.77-.27,8.43,8.43,0,0,0,.8-.39c.26-.14.51-.29.74-.44a5.2,5.2,0,0,0,.6-.45l.52,0H29v10.3Z"/><path class="cls-4" d="M28.88,23.07H27.76V14.6a4.22,4.22,0,0,1-.38.3c-.17.11-.35.22-.56.33a6.62,6.62,0,0,1-.66.3,3.8,3.8,0,0,1-.67.23V14.63a6.2,6.2,0,0,0,.78-.28q.42-.18.81-.39a8,8,0,0,0,.76-.45,7.15,7.15,0,0,0,.62-.46h.42Z"/></g></g></svg>