<svg xmlns="http://www.w3.org/2000/svg" viewBox="0 0 36.77 36.77"><defs><style>.cls-1{fill:#cdcdcc;}.cls-2{fill:#2a638c;}.cls-3{fill:#eeeded;}.cls-3,.cls-4{stroke:#100605;stroke-miterlimit:10;stroke-width:1.2px;}.cls-4{fill:none;}.cls-5{fill:#1d1d1b;}</style></defs><g id="Réteg_2" data-name="Réteg 2"><g id="Réteg_1" data-name="Réteg 1"><rect class="cls-1" x="1.5" y="1.5" width="33.77" height="33.77" rx="2.26"/><path class="cls-2" d="M33,3a.77.77,0,0,1,.77.76V33a.78.78,0,0,1-.77.77H3.76A.77.77,0,0,1,3,33V3.76A.76.76,0,0,1,3.76,3H33m0-3H3.76A3.76,3.76,0,0,0,0,3.76V33a3.76,3.76,0,0,0,3.76,3.77H33A3.77,3.77,0,0,0,36.77,33V3.76A3.76,3.76,0,0,0,33,0Z"/><path class="cls-3" d="M13.36,12.43H4.88"/><line class="cls-3" x1="9.12" y1="14.5" x2="9.12" y2="23.42"/><polyline class="cls-4" points="11.88 20.94 9.12 23.69 6.36 20.94"/><path class="cls-5" d="M27.62,23.21V14.9l-.16.11a5,5,0,0,1-.57.34l-.67.32a7.13,7.13,0,0,1-.7.23l-.17,0V14.52l.1,0a8,8,0,0,0,.77-.27,8.43,8.43,0,0,0,.8-.39c.26-.14.51-.29.74-.44a5.2,5.2,0,0,0,.6-.45l.52,0H29v10.3Z"/><path class="cls-5" d="M28.88,23.07H27.76V14.6a4.22,4.22,0,0,1-.38.3c-.17.11-.35.22-.56.33a6.62,6.62,0,0,1-.66.3,3.8,3.8,0,0,1-.67.23V14.63a5.68,5.68,0,0,0,.78-.28q.42-.18.81-.39a8,8,0,0,0,.76-.45,7.15,7.15,0,0,0,.62-.46h.42Z"/></g></g></svg>