<svg xmlns="http://www.w3.org/2000/svg" viewBox="0 0 36.77 36.77"><defs><style>.cls-1{fill:#919191;}.cls-2{fill:#eeeded;}.cls-2,.cls-3{stroke:#100605;stroke-miterlimit:10;stroke-width:1.2px;}.cls-3{fill:none;}.cls-4{fill:#1d1d1b;}</style></defs><g id="Réteg_2" data-name="Réteg 2"><g id="Réteg_1" data-name="Réteg 1"><rect class="cls-1" width="36.77" height="36.77" rx="3.76"/><path class="cls-2" d="M4.88,22.59h8.48"/><line class="cls-2" x1="9.12" y1="20.52" x2="9.12" y2="11.6"/><polyline class="cls-3" points="6.36 14.08 9.12 11.32 11.88 14.08"/><path class="cls-4" d="M19.94,22.28a2.7,2.7,0,0,1-2.4-1.34,4.91,4.91,0,0,1-.63-1.57,10.22,10.22,0,0,1-.2-2.11,11.34,11.34,0,0,1,.21-2.3,5.23,5.23,0,0,1,.66-1.69,3,3,0,0,1,1.08-1.06,3.18,3.18,0,0,1,1.49-.35c2.14,0,3.22,1.74,3.22,5.16a9.87,9.87,0,0,1-.22,2.22,5.12,5.12,0,0,1-.66,1.64,2.93,2.93,0,0,1-2.55,1.4Zm.16-9.19c-1.3,0-2,1.39-2,4.12,0,2.54.64,3.83,1.91,3.83s1.89-1.32,1.89-3.91S21.32,13.09,20.1,13.09Z"/><path class="cls-4" d="M23.23,17A9.51,9.51,0,0,1,23,19.2a5.16,5.16,0,0,1-.64,1.61,3,3,0,0,1-1,1,2.93,2.93,0,0,1-1.4.34,2.58,2.58,0,0,1-1.31-.33,2.74,2.74,0,0,1-1-.94,5.09,5.09,0,0,1-.6-1.53,10,10,0,0,1-.2-2.08A11,11,0,0,1,17.06,15a5.41,5.41,0,0,1,.64-1.65,2.74,2.74,0,0,1,1-1A2.87,2.87,0,0,1,20.15,12C22.21,12,23.23,13.67,23.23,17Zm-1.15.11q0-4.18-2-4.18T18,17.21q0,4,2.05,4C21.41,21.18,22.08,19.83,22.08,17.13Z"/><path class="cls-4" d="M25.33,22.26a.87.87,0,0,1-.64-.27.92.92,0,0,1,0-1.28.87.87,0,0,1,.64-.27.89.89,0,0,1,.65.27A.89.89,0,0,1,26,22,.89.89,0,0,1,25.33,22.26Z"/><path class="cls-4" d="M25.33,22.12a.7.7,0,0,1-.53-.23.75.75,0,0,1,0-1.08.67.67,0,0,1,.53-.23.71.71,0,0,1,.55.23.77.77,0,0,1,0,1.08A.75.75,0,0,1,25.33,22.12Z"/><path class="cls-4" d="M30.53,22.11V13.8l-.16.11a5,5,0,0,1-.57.34,6.85,6.85,0,0,1-.67.31,5.7,5.7,0,0,1-.69.24l-.18,0V13.42l.1,0a8,8,0,0,0,.77-.27c.27-.12.54-.25.8-.39s.51-.29.74-.44a7.49,7.49,0,0,0,.61-.45l.51,0h.14V22.11Z"/><path class="cls-4" d="M31.79,22H30.67V13.5a3,3,0,0,1-.38.29,4.88,4.88,0,0,1-.56.34c-.21.1-.43.21-.66.3a4.84,4.84,0,0,1-.67.23V13.52a5.58,5.58,0,0,0,.78-.27c.28-.12.55-.25.82-.39s.52-.3.75-.45a7.12,7.12,0,0,0,.62-.47h.42Z"/></g></g></svg>