<svg xmlns="http://www.w3.org/2000/svg" viewBox="0 0 135.28 46.74"><defs><style>.cls-1{fill:#efeeee;}.cls-2{fill:#2b628d;}</style></defs><g id="Réteg_2" data-name="Réteg 2"><g id="Réteg_1" data-name="Réteg 1"><path class="cls-1" d="M115.19,45.36a72.17,72.17,0,0,0-93.79-1.2c-.44.37-.87.75-1.3,1.13L1.44,26.63a98.2,98.2,0,0,1,132.4.08Z"/><path class="cls-2" d="M67.6,2a96.86,96.86,0,0,1,64.79,24.75L115.14,44a73.18,73.18,0,0,0-94.38-.6l-.62.53L2.9,26.67A96.89,96.89,0,0,1,67.6,2m0-2A99.28,99.28,0,0,0,0,26.6L20.06,46.67c.65-.59,1.31-1.18,2-1.74a71.13,71.13,0,0,1,93.17,1.81l20.06-20.06A99.23,99.23,0,0,0,67.6,0Z"/></g></g></svg>