<svg xmlns="http://www.w3.org/2000/svg" viewBox="0 0 38.27 38.27"><defs><style>.cls-1{fill:#cececd;stroke:#2b628d;stroke-width:1.5px;}.cls-1,.cls-2,.cls-3{stroke-miterlimit:10;}.cls-2{fill:#efeeee;}.cls-2,.cls-3{stroke:#100605;stroke-width:1.2px;}.cls-3{fill:none;}.cls-4{fill:#1d1d1b;}</style></defs><g id="Réteg_2" data-name="Réteg 2"><g id="Réteg_1" data-name="Réteg 1"><rect class="cls-1" x="0.75" y="0.75" width="36.77" height="36.77" rx="3.76"/><path class="cls-2" d="M14.11,13.18H5.63"/><line class="cls-2" x1="9.87" y1="15.25" x2="9.87" y2="24.17"/><polyline class="cls-3" points="12.63 21.69 9.87 24.44 7.11 21.69"/><path class="cls-4" d="M28.37,24V15.65l-.16.11a5,5,0,0,1-.57.34l-.67.32a7.13,7.13,0,0,1-.7.23l-.17,0V15.27l.1,0A8,8,0,0,0,27,15a8.43,8.43,0,0,0,.8-.39c.26-.14.51-.29.74-.44a5.2,5.2,0,0,0,.6-.45l.52,0h.14V24Z"/><path class="cls-4" d="M29.63,23.82H28.51V15.35a4.22,4.22,0,0,1-.38.3c-.17.11-.35.22-.56.33a6.62,6.62,0,0,1-.66.3,3.8,3.8,0,0,1-.67.23V15.38A6.2,6.2,0,0,0,27,15.1q.42-.18.81-.39a8,8,0,0,0,.76-.45,7.15,7.15,0,0,0,.62-.46h.42Z"/></g></g></svg>