<svg xmlns="http://www.w3.org/2000/svg" viewBox="0 0 38.27 38.27"><defs><style>.cls-1,.cls-2{fill:#efeeee;}.cls-1{stroke:#2b628d;stroke-width:1.5px;}.cls-1,.cls-2,.cls-3{stroke-miterlimit:10;}.cls-2,.cls-3{stroke:#100605;stroke-width:1.2px;}.cls-3{fill:none;}.cls-4{fill:#1d1d1b;}</style></defs><g id="Réteg_2" data-name="Réteg 2"><g id="Réteg_1" data-name="Réteg 1"><rect class="cls-1" x="0.75" y="0.75" width="36.77" height="36.77" rx="3.76"/><path class="cls-2" d="M5.63,24.77h8.48"/><line class="cls-2" x1="9.87" y1="22.69" x2="9.87" y2="13.78"/><polyline class="cls-3" points="7.11 16.25 9.87 13.5 12.63 16.25"/><path class="cls-4" d="M20.7,24.28V16l-.16.11-.57.34-.67.31a5.19,5.19,0,0,1-.7.23l-.17.05V15.59l.1,0a6,6,0,0,0,.77-.27,8.34,8.34,0,0,0,.8-.38,7.66,7.66,0,0,0,.74-.45,5.2,5.2,0,0,0,.6-.45L22,14h.14v10.3Z"/><path class="cls-4" d="M22,24.14H20.84V15.67a2.28,2.28,0,0,1-.38.3c-.17.11-.35.22-.56.33s-.43.21-.66.31a4.76,4.76,0,0,1-.67.22V15.7a5.68,5.68,0,0,0,.78-.28,6,6,0,0,0,.81-.39,8,8,0,0,0,.76-.45,7.15,7.15,0,0,0,.62-.46H22Z"/><path class="cls-4" d="M28.24,24.45a2.74,2.74,0,0,1-1.38-.34,3,3,0,0,1-1-1,5.06,5.06,0,0,1-.62-1.58,9.5,9.5,0,0,1-.21-2.1,11.22,11.22,0,0,1,.22-2.3,5.64,5.64,0,0,1,.65-1.7,3,3,0,0,1,1.09-1A3,3,0,0,1,28.45,14c2.14,0,3.22,1.74,3.22,5.17a9.21,9.21,0,0,1-.23,2.21,5.18,5.18,0,0,1-.66,1.65,2.86,2.86,0,0,1-2.54,1.39Zm.15-9.18c-1.3,0-1.95,1.38-1.95,4.11,0,2.54.64,3.83,1.91,3.83s1.89-1.31,1.89-3.9S29.62,15.27,28.39,15.27Z"/><path class="cls-4" d="M31.53,19.2a9.51,9.51,0,0,1-.22,2.18,4.87,4.87,0,0,1-.65,1.6,2.71,2.71,0,0,1-1,1,2.75,2.75,0,0,1-1.39.34A2.67,2.67,0,0,1,26.93,24,2.77,2.77,0,0,1,26,23a4.89,4.89,0,0,1-.6-1.53,9.2,9.2,0,0,1-.2-2.07,10.9,10.9,0,0,1,.21-2.27A5,5,0,0,1,26,15.52a2.86,2.86,0,0,1,1-1,3,3,0,0,1,1.42-.34Q31.53,14.17,31.53,19.2Zm-1.15.11q0-4.18-2-4.19t-2.1,4.26q0,4,2.06,4T30.38,19.31Z"/></g></g></svg>