<svg xmlns="http://www.w3.org/2000/svg" viewBox="0 0 68.01 36.77"><defs><style>.cls-1{fill:#eeeded;}.cls-2{font-size:20.59px;font-family:Consolas-Bold, Consolas;font-weight:700;}</style></defs><g id="Réteg_2" data-name="Réteg 2"><g id="Réteg_1" data-name="Réteg 1"><rect class="cls-1" width="68.01" height="36.77" rx="3.76"/><text class="cls-2" transform="translate(17.03 20.1)">VIS</text><path d="M19.44,29.17l2.39-5.44h.73l-2.33,5.38H24v.63H19.44Zm3.21-2.52h.68v4.18h-.68Z"/><path d="M28.9,24.32l-1.84,6.51h-.77l1.87-6.45H25.74v1.31H25v-2H28.9Z"/><path d="M30.78,30.37a2.08,2.08,0,0,1-.52-1.49V25.65a2.05,2.05,0,0,1,.52-1.48,2.42,2.42,0,0,1,3,0,2,2,0,0,1,.52,1.48v3.23a1.83,1.83,0,0,1-2,2A2,2,0,0,1,30.78,30.37Zm2.51-.48a1.43,1.43,0,0,0,.32-1V25.65a1.44,1.44,0,0,0-.32-1,1.6,1.6,0,0,0-2,0,1.44,1.44,0,0,0-.32,1v3.23a1.43,1.43,0,0,0,.32,1,1.6,1.6,0,0,0,2,0Z"/><path d="M35.83,25.76h.7v5.07h-.7Zm3.37,2a1.43,1.43,0,0,0-.36-1,1.28,1.28,0,0,0-1-.37,1.34,1.34,0,0,0-1,.33,1.23,1.23,0,0,0-.35.93l-.1-1a1.6,1.6,0,0,1,.71-.72,2.26,2.26,0,0,1,1-.23,1.58,1.58,0,0,1,1.28.54,2.33,2.33,0,0,1,.45,1.53v3.08h-.7Z"/><path d="M41.42,25.76h.7v5.07h-.7Zm3.17,2a1.56,1.56,0,0,0-.32-1,1.13,1.13,0,0,0-.91-.37,1.23,1.23,0,0,0-.92.33,1.35,1.35,0,0,0-.32.95l-.1-1a1.63,1.63,0,0,1,.66-.73,2,2,0,0,1,1-.23,1.53,1.53,0,0,1,.89.25,1.48,1.48,0,0,1,.57.7,2.88,2.88,0,0,1,.19,1.12v3.08h-.7Zm3.17,0a1.51,1.51,0,0,0-.32-1,1.13,1.13,0,0,0-.91-.37,1.15,1.15,0,0,0-.91.36,1.46,1.46,0,0,0-.33,1L45,27a2.19,2.19,0,0,1,.68-1,1.69,1.69,0,0,1,1-.34,1.67,1.67,0,0,1,.94.25,1.48,1.48,0,0,1,.6.7,2.7,2.7,0,0,1,.21,1.12v3.08h-.71Z"/></g></g></svg>