<svg xmlns="http://www.w3.org/2000/svg" viewBox="0 0 33.96 27.66"><defs><style>.cls-1{font-size:20.59px;font-family:Consolas-Bold, Consolas;font-weight:700;}</style></defs><g id="Réteg_2" data-name="Réteg 2"><g id="Réteg_1" data-name="Réteg 1"><text class="cls-1" transform="translate(0.01 16.86)">VIS</text><path d="M2.42,25.93,4.8,20.5h.74L3.21,25.87H7v.63H2.42Zm3.21-2.51h.68v4.17H5.63Z"/><path d="M11.88,21.09,10,27.59H9.27l1.87-6.45H8.72v1.32H8v-2h3.87Z"/><path d="M13.76,27.13a2,2,0,0,1-.52-1.48V22.42a2.13,2.13,0,0,1,3.54-1.49,2.06,2.06,0,0,1,.51,1.49v3.23a2,2,0,0,1-.51,1.48,2,2,0,0,1-1.51.53A2,2,0,0,1,13.76,27.13Zm2.51-.48a1.45,1.45,0,0,0,.32-1V22.42a1.46,1.46,0,0,0-.32-1,1.28,1.28,0,0,0-1-.35,1.27,1.27,0,0,0-1,.35,1.41,1.41,0,0,0-.32,1v3.23a1.4,1.4,0,0,0,.32,1,1.27,1.27,0,0,0,1,.36A1.29,1.29,0,0,0,16.27,26.65Z"/><path d="M18.81,22.52h.7v5.07h-.7Zm3.37,2a1.45,1.45,0,0,0-.36-1.05,1.33,1.33,0,0,0-1-.37,1.34,1.34,0,0,0-1,.33,1.24,1.24,0,0,0-.35.94l-.1-1a1.7,1.7,0,0,1,.71-.72,2.26,2.26,0,0,1,1-.22,1.58,1.58,0,0,1,1.28.54,2.32,2.32,0,0,1,.45,1.52v3.08h-.7Z"/><path d="M24.39,22.52h.71v5.07h-.71Zm3.18,2a1.59,1.59,0,0,0-.32-1.05,1.16,1.16,0,0,0-.91-.37,1.2,1.2,0,0,0-.92.34,1.3,1.3,0,0,0-.32.94l-.1-1a1.61,1.61,0,0,1,.66-.74,2,2,0,0,1,1-.22,1.62,1.62,0,0,1,.89.24,1.51,1.51,0,0,1,.57.71,2.83,2.83,0,0,1,.19,1.11v3.08h-.7Zm3.17,0a1.59,1.59,0,0,0-.32-1.05,1.32,1.32,0,0,0-1.82,0,1.46,1.46,0,0,0-.33,1l-.3-.73a2.29,2.29,0,0,1,.68-1,1.69,1.69,0,0,1,1.05-.33,1.78,1.78,0,0,1,.94.24,1.56,1.56,0,0,1,.6.71,2.65,2.65,0,0,1,.21,1.11v3.08h-.71Z"/></g></g></svg>