<svg xmlns="http://www.w3.org/2000/svg" viewBox="0 0 68.01 36.77"><defs><style>.cls-1{fill:#eeeded;}.cls-2{font-size:20.59px;font-family:Consolas-Bold, Consolas;font-weight:700;}</style></defs><g id="Réteg_2" data-name="Réteg 2"><g id="Réteg_1" data-name="Réteg 1"><rect class="cls-1" width="68.01" height="36.77" rx="3.76"/><text class="cls-2" transform="translate(17.03 20.1)">UVC</text><path d="M19.73,30.25l2.67-3.49a3.27,3.27,0,0,0,.41-.67A1.43,1.43,0,0,0,23,25.5h0a1.16,1.16,0,0,0-.32-.87,1.29,1.29,0,0,0-.93-.31,1.25,1.25,0,0,0-.9.33,1.5,1.5,0,0,0-.42.94h-.74a2.67,2.67,0,0,1,.36-1,1.84,1.84,0,0,1,.7-.66,2.13,2.13,0,0,1,1-.23,2.41,2.41,0,0,1,1.09.22,1.49,1.49,0,0,1,.68.63,2,2,0,0,1,.24,1h0a1.91,1.91,0,0,1-.2.76,4.45,4.45,0,0,1-.54.88l-2.35,3h3.12v.66h-4Z"/><path d="M28.67,24.32l-1.83,6.51h-.77l1.87-6.45H25.51v1.31h-.7v-2h3.86Z"/><path d="M31.07,30.69a1.67,1.67,0,0,1-.68-.61,2.39,2.39,0,0,1-.35-1h.7a1.24,1.24,0,0,0,.4.82,1.28,1.28,0,0,0,.88.29,1.3,1.3,0,0,0,1-.34,1.34,1.34,0,0,0,.33-1v-1A1.38,1.38,0,0,0,33,27a1,1,0,0,0-.81-.33,1.52,1.52,0,0,0-.78.21,2.26,2.26,0,0,0-.63.64h-.62V23.73h3.62v.65H30.9v2.13a1.87,1.87,0,0,1,.61-.41,1.67,1.67,0,0,1,.71-.15,2,2,0,0,1,1,.23,1.47,1.47,0,0,1,.62.66,2.35,2.35,0,0,1,.21,1v1A2.25,2.25,0,0,1,33.78,30a1.54,1.54,0,0,1-.68.68A2.39,2.39,0,0,1,32,30.9,2,2,0,0,1,31.07,30.69Z"/><path d="M35.53,25.76h.7v5.07h-.7Zm3.37,2a1.47,1.47,0,0,0-.35-1,1.31,1.31,0,0,0-1-.37,1.34,1.34,0,0,0-1,.33,1.23,1.23,0,0,0-.35.93l-.1-1a1.57,1.57,0,0,1,.72-.72,2.21,2.21,0,0,1,1-.23,1.56,1.56,0,0,1,1.27.54,2.33,2.33,0,0,1,.45,1.53v3.08h-.7Z"/><path d="M41.12,25.76h.7v5.07h-.7Zm3.17,2a1.56,1.56,0,0,0-.32-1,1.13,1.13,0,0,0-.91-.37,1.21,1.21,0,0,0-.91.33,1.31,1.31,0,0,0-.33.95l-.1-1a1.63,1.63,0,0,1,.66-.73,2,2,0,0,1,1-.23,1.56,1.56,0,0,1,.9.25,1.52,1.52,0,0,1,.56.7A2.88,2.88,0,0,1,45,27.75v3.08h-.7Zm3.18,0a1.51,1.51,0,0,0-.33-1,1.11,1.11,0,0,0-.91-.37,1.17,1.17,0,0,0-.91.36,1.46,1.46,0,0,0-.33,1L44.7,27a2.12,2.12,0,0,1,.68-1,1.64,1.64,0,0,1,1-.34,1.73,1.73,0,0,1,.95.25,1.46,1.46,0,0,1,.59.7,2.7,2.7,0,0,1,.21,1.12v3.08h-.7Z"/></g></g></svg>