<svg xmlns="http://www.w3.org/2000/svg" viewBox="0 0 68.01 36.77"><defs><style>.cls-1{fill:#8b26c6;}.cls-2{font-size:20.59px;font-family:Consolas-Bold, Consolas;font-weight:700;}</style></defs><g id="Réteg_2" data-name="Réteg 2"><g id="Réteg_1" data-name="Réteg 1"><rect class="cls-1" width="68.01" height="36.77" rx="3.76"/><text class="cls-2" transform="translate(17.03 20.1)">UVA</text><path d="M20.51,30.69a1.89,1.89,0,0,1-.73-.61,2.16,2.16,0,0,1-.34-1h.7a1.39,1.39,0,0,0,.25.61,1.13,1.13,0,0,0,.48.38,1.67,1.67,0,0,0,.69.13,1.35,1.35,0,0,0,1-.34,1.26,1.26,0,0,0,.35-.95v-.22a1.26,1.26,0,0,0-.34-.93,1.29,1.29,0,0,0-.95-.33h-.5v-.65h.5a1.21,1.21,0,0,0,.86-.29,1,1,0,0,0,.31-.81v-.22a1.16,1.16,0,0,0-.32-.87,1.25,1.25,0,0,0-.9-.3,1.38,1.38,0,0,0-.59.12,1.24,1.24,0,0,0-.45.37,1.47,1.47,0,0,0-.26.58h-.71a2.47,2.47,0,0,1,.37-.94,1.71,1.71,0,0,1,.69-.59,2.08,2.08,0,0,1,.95-.21,2,2,0,0,1,1.42.49,1.77,1.77,0,0,1,.5,1.36v.21a1.64,1.64,0,0,1-.23.87,1.41,1.41,0,0,1-.68.54,1.21,1.21,0,0,1,.76.54,1.93,1.93,0,0,1,.27,1.07v.21A2.18,2.18,0,0,1,23.36,30a1.59,1.59,0,0,1-.69.67,2.76,2.76,0,0,1-2.16,0Z"/><path d="M25.78,30.65a1.63,1.63,0,0,1-.68-.74,2.69,2.69,0,0,1-.23-1.16h0a4.12,4.12,0,0,1,.09-.83,4.2,4.2,0,0,1,.27-.85l.06-.15a.91.91,0,0,0,.07-.14l1.55-3.05h.78l-1.81,3.54v-.18a.94.94,0,0,1,.42-.36,1.54,1.54,0,0,1,.63-.12,2,2,0,0,1,1,.25,1.58,1.58,0,0,1,.65.72,2.68,2.68,0,0,1,.22,1.15h0a2.74,2.74,0,0,1-.23,1.17,1.63,1.63,0,0,1-.68.74,2.15,2.15,0,0,1-1.07.26A2.2,2.2,0,0,1,25.78,30.65Zm2-.79a1.46,1.46,0,0,0,.34-1.05h0a1.71,1.71,0,0,0-.35-1.14,1.22,1.22,0,0,0-1-.4,1.1,1.1,0,0,0-.91.4,1.82,1.82,0,0,0-.32,1.14h0a1.45,1.45,0,0,0,.34,1,1.18,1.18,0,0,0,.94.37A1.19,1.19,0,0,0,27.79,29.86Z"/><path d="M31.18,30.69a1.74,1.74,0,0,1-.68-.61,2.39,2.39,0,0,1-.35-1h.7a1.24,1.24,0,0,0,.4.82,1.28,1.28,0,0,0,.88.29,1.3,1.3,0,0,0,1-.34,1.34,1.34,0,0,0,.33-1v-1a1.38,1.38,0,0,0-.28-.93,1,1,0,0,0-.81-.33,1.52,1.52,0,0,0-.78.21,2.26,2.26,0,0,0-.63.64H30.3V23.73h3.62v.65H31v2.13a1.87,1.87,0,0,1,.61-.41,1.67,1.67,0,0,1,.71-.15,2,2,0,0,1,1,.23,1.47,1.47,0,0,1,.62.66,2.35,2.35,0,0,1,.21,1v1A2.25,2.25,0,0,1,33.89,30a1.54,1.54,0,0,1-.68.68,2.39,2.39,0,0,1-1.08.23A2,2,0,0,1,31.18,30.69Z"/><path d="M35.64,25.76h.7v5.07h-.7Zm3.37,2a1.47,1.47,0,0,0-.35-1,1.31,1.31,0,0,0-1-.37,1.34,1.34,0,0,0-1,.33,1.23,1.23,0,0,0-.35.93l-.1-1a1.6,1.6,0,0,1,.71-.72,2.26,2.26,0,0,1,1-.23,1.56,1.56,0,0,1,1.28.54,2.33,2.33,0,0,1,.45,1.53v3.08H39Z"/><path d="M41.23,25.76h.7v5.07h-.7Zm3.17,2a1.56,1.56,0,0,0-.32-1,1.13,1.13,0,0,0-.91-.37,1.25,1.25,0,0,0-.92.33,1.35,1.35,0,0,0-.32.95l-.1-1a1.63,1.63,0,0,1,.66-.73,2,2,0,0,1,1-.23,1.58,1.58,0,0,1,.89.24,1.56,1.56,0,0,1,.57.71,2.88,2.88,0,0,1,.19,1.12v3.08h-.7Zm3.17,0a1.51,1.51,0,0,0-.32-1,1.13,1.13,0,0,0-.91-.37,1.17,1.17,0,0,0-.91.36,1.45,1.45,0,0,0-.33,1L44.81,27a2.18,2.18,0,0,1,.67-1,1.69,1.69,0,0,1,1.05-.34,1.75,1.75,0,0,1,.94.24,1.5,1.5,0,0,1,.6.71,2.7,2.7,0,0,1,.21,1.12v3.08h-.71Z"/></g></g></svg>