<svg xmlns="http://www.w3.org/2000/svg" viewBox="0 0 68.01 36.77"><defs><style>.cls-1{fill:#eeeded;}.cls-2{font-size:20.59px;font-family:Consolas-Bold, Consolas;font-weight:700;}</style></defs><g id="Réteg_2" data-name="Réteg 2"><g id="Réteg_1" data-name="Réteg 1"><rect class="cls-1" width="68.01" height="36.77" rx="3.76"/><text class="cls-2" transform="translate(17.03 20.1)">UVA</text><path d="M20.51,30.69a1.89,1.89,0,0,1-.73-.61,2.16,2.16,0,0,1-.34-1h.7a1.39,1.39,0,0,0,.25.61,1.13,1.13,0,0,0,.48.38,1.67,1.67,0,0,0,.69.13,1.34,1.34,0,0,0,1-.34,1.26,1.26,0,0,0,.35-.95v-.22a1.22,1.22,0,0,0-.34-.93,1.29,1.29,0,0,0-.95-.33h-.5v-.65h.5a1.25,1.25,0,0,0,.87-.29,1.06,1.06,0,0,0,.3-.81v-.22a1.16,1.16,0,0,0-.32-.87,1.25,1.25,0,0,0-.9-.3,1.38,1.38,0,0,0-.59.12,1.24,1.24,0,0,0-.45.37,1.47,1.47,0,0,0-.26.58h-.71a2.47,2.47,0,0,1,.37-.94,1.71,1.71,0,0,1,.69-.59,2.08,2.08,0,0,1,.95-.21,2,2,0,0,1,1.42.49,1.77,1.77,0,0,1,.5,1.36v.21a1.66,1.66,0,0,1-.23.87,1.37,1.37,0,0,1-.67.54,1.21,1.21,0,0,1,.75.54,1.93,1.93,0,0,1,.27,1.07v.21A2.18,2.18,0,0,1,23.36,30a1.59,1.59,0,0,1-.69.67,2.76,2.76,0,0,1-2.16,0Z"/><path d="M25.93,30.67A1.64,1.64,0,0,1,25.2,30,2,2,0,0,1,24.94,29v-.07a2,2,0,0,1,.26-1,1.82,1.82,0,0,1,.72-.71,1.63,1.63,0,0,1-.61-.64,1.82,1.82,0,0,1-.22-.9v-.08a2,2,0,0,1,.24-1,1.53,1.53,0,0,1,.68-.65,2.79,2.79,0,0,1,2.17,0,1.61,1.61,0,0,1,.69.65,2.13,2.13,0,0,1,.23,1v.08a1.83,1.83,0,0,1-.22.91,1.51,1.51,0,0,1-.62.63,1.92,1.92,0,0,1,.73.71,2,2,0,0,1,.26,1V29A2,2,0,0,1,29,30a1.66,1.66,0,0,1-.74.67,2.73,2.73,0,0,1-1.16.23A2.77,2.77,0,0,1,25.93,30.67Zm1.94-.57a1.15,1.15,0,0,0,.49-.46,1.56,1.56,0,0,0,.17-.74v0a1.51,1.51,0,0,0-.17-.73,1.11,1.11,0,0,0-.49-.47,1.65,1.65,0,0,0-.77-.16,1.7,1.7,0,0,0-.78.16,1.17,1.17,0,0,0-.49.47,1.53,1.53,0,0,0-.16.74v0a1.51,1.51,0,0,0,.16.73,1.21,1.21,0,0,0,.49.46,1.7,1.7,0,0,0,.78.16A1.65,1.65,0,0,0,27.87,30.1Zm-.06-3.35a1.05,1.05,0,0,0,.46-.45,1.55,1.55,0,0,0,.15-.71v-.07a1.41,1.41,0,0,0-.15-.67,1,1,0,0,0-.46-.41,1.52,1.52,0,0,0-.71-.15,1.59,1.59,0,0,0-.72.15,1,1,0,0,0-.46.42,1.34,1.34,0,0,0-.15.66v.08a1.51,1.51,0,0,0,.15.7,1.05,1.05,0,0,0,.46.45,1.59,1.59,0,0,0,.72.15A1.52,1.52,0,0,0,27.81,26.75Z"/><path d="M31.67,30.69a1.67,1.67,0,0,1-.68-.61,2.55,2.55,0,0,1-.35-1h.7a1.2,1.2,0,0,0,1.28,1.11,1.3,1.3,0,0,0,1-.34,1.35,1.35,0,0,0,.34-1v-1a1.38,1.38,0,0,0-.29-.93,1,1,0,0,0-.81-.33,1.46,1.46,0,0,0-.77.21,2.16,2.16,0,0,0-.64.64H30.8V23.73h3.62v.65H31.5v2.13a2,2,0,0,1,.61-.41,1.71,1.71,0,0,1,.71-.15,2,2,0,0,1,1,.23,1.45,1.45,0,0,1,.61.66,2.35,2.35,0,0,1,.21,1v1A2.38,2.38,0,0,1,34.39,30a1.62,1.62,0,0,1-.69.68,2.39,2.39,0,0,1-1.08.23A2.11,2.11,0,0,1,31.67,30.69Z"/><path d="M36.13,25.76h.71v5.07h-.71Zm3.37,2a1.43,1.43,0,0,0-.35-1,1.31,1.31,0,0,0-1-.37,1.34,1.34,0,0,0-1,.33,1.22,1.22,0,0,0-.34.93l-.1-1a1.5,1.5,0,0,1,.71-.72,2.23,2.23,0,0,1,1-.23,1.59,1.59,0,0,1,1.28.54,2.33,2.33,0,0,1,.45,1.53v3.08H39.5Z"/><path d="M41.72,25.76h.7v5.07h-.7Zm3.17,2a1.51,1.51,0,0,0-.32-1,1.11,1.11,0,0,0-.91-.37,1.21,1.21,0,0,0-.91.33,1.31,1.31,0,0,0-.33.95l-.1-1a1.6,1.6,0,0,1,.67-.73,1.94,1.94,0,0,1,.95-.23,1.56,1.56,0,0,1,.9.25,1.41,1.41,0,0,1,.56.7,2.88,2.88,0,0,1,.2,1.12v3.08h-.71Zm3.18,0a1.56,1.56,0,0,0-.32-1,1.14,1.14,0,0,0-.91-.37,1.18,1.18,0,0,0-.92.36,1.49,1.49,0,0,0-.32,1L45.3,27A2.12,2.12,0,0,1,46,26a1.63,1.63,0,0,1,1-.34,1.7,1.7,0,0,1,.95.25,1.54,1.54,0,0,1,.6.7,2.88,2.88,0,0,1,.2,1.12v3.08h-.7Z"/></g></g></svg>