<svg xmlns="http://www.w3.org/2000/svg" viewBox="0 0 68.01 36.77"><defs><style>.cls-1{fill:#0f74b1;}.cls-2{font-size:20.59px;font-family:Consolas-Bold, Consolas;font-weight:700;}</style></defs><g id="Réteg_2" data-name="Réteg 2"><g id="Réteg_1" data-name="Réteg 1"><rect class="cls-1" width="68.01" height="36.77" rx="3.76"/><text class="cls-2" transform="translate(17.03 20.1)">PSU</text><path d="M29.22,30.57a2.25,2.25,0,0,1-.9-.91A2.92,2.92,0,0,1,28,28.28v-2a2.86,2.86,0,0,1,.31-1.37,2.22,2.22,0,0,1,.9-.92,2.85,2.85,0,0,1,2.66,0,2.16,2.16,0,0,1,.9.92,2.86,2.86,0,0,1,.32,1.37v2a2.93,2.93,0,0,1-.32,1.38,2.19,2.19,0,0,1-.9.91,2.85,2.85,0,0,1-2.66,0Zm2-1a1.26,1.26,0,0,0,.47-.5,1.65,1.65,0,0,0,.16-.75V26.24a1.6,1.6,0,0,0-.16-.75,1.14,1.14,0,0,0-.47-.5,1.39,1.39,0,0,0-.71-.18,1.33,1.33,0,0,0-.7.18,1.11,1.11,0,0,0-.48.5,1.6,1.6,0,0,0-.16.75v2.08a1.65,1.65,0,0,0,.16.75,1.22,1.22,0,0,0,.48.5,1.42,1.42,0,0,0,.7.17A1.49,1.49,0,0,0,31.26,29.57Z"/><path d="M34.51,23.73h1.27l3.06,5.46-.12.13V23.73h1.13v7.09H38.57l-3-5.38.11-.13v5.51H34.51Z"/></g></g></svg>