<svg xmlns="http://www.w3.org/2000/svg" viewBox="0 0 68.01 36.77"><defs><style>.cls-1{fill:#eb5e59;}.cls-2{font-size:20.59px;font-family:Consolas-Bold, Consolas;font-weight:700;}</style></defs><g id="Réteg_2" data-name="Réteg 2"><g id="Réteg_1" data-name="Réteg 1"><rect class="cls-1" width="68.01" height="36.77" rx="3.76"/><text class="cls-2" transform="translate(17.03 20.1)">PSU</text><path d="M27.08,30.57a2.17,2.17,0,0,1-.89-.91,2.81,2.81,0,0,1-.32-1.38v-2a2.81,2.81,0,0,1,.32-1.38,2.17,2.17,0,0,1,.89-.91,2.62,2.62,0,0,1,1.33-.33,2.66,2.66,0,0,1,1.34.33,2.23,2.23,0,0,1,.89.91A2.93,2.93,0,0,1,31,26.27v2a2.93,2.93,0,0,1-.32,1.38,2.23,2.23,0,0,1-.89.91,2.66,2.66,0,0,1-1.34.33A2.62,2.62,0,0,1,27.08,30.57Zm2-1a1.22,1.22,0,0,0,.47-.51,1.58,1.58,0,0,0,.17-.74V26.24a1.6,1.6,0,0,0-.17-.75,1.14,1.14,0,0,0-.47-.5,1.39,1.39,0,0,0-.71-.18,1.33,1.33,0,0,0-.7.18,1.09,1.09,0,0,0-.47.5,1.49,1.49,0,0,0-.17.75v2.08a1.47,1.47,0,0,0,.17.74,1.16,1.16,0,0,0,.47.51,1.42,1.42,0,0,0,.7.17A1.49,1.49,0,0,0,29.12,29.57Z"/><path d="M32.37,23.73h1.17v7.1H32.37Zm.49,0h4.08v1.11H32.86Zm0,3.08H36.4v1.11H32.86Z"/><path d="M38.06,23.73h1.17v7.1H38.06Zm.49,0h4.08v1.11H38.55Zm0,3.08h3.54v1.11H38.55Z"/></g></g></svg>